<?xml version="1.0" encoding="UTF-8" standalone="no" ?>
<!DOCTYPE svg PUBLIC "-//W3C//DTD SVG 1.1//EN" "http://www.w3.org/Graphics/SVG/1.1/DTD/svg11.dtd">
<svg xmlns="http://www.w3.org/2000/svg" xmlns:xlink="http://www.w3.org/1999/xlink" version="1.1" width="1080" height="1080" viewBox="0 0 1080 1080" xml:space="preserve">
<desc>Created with Fabric.js 5.2.4</desc>
<defs>
</defs>
<g transform="matrix(1 0 0 1 540 540)" id="b9ddaf55-1087-43a3-be97-5b5b47bf75dc"  >
<rect style="stroke: none; stroke-width: 1; stroke-dasharray: none; stroke-linecap: butt; stroke-dashoffset: 0; stroke-linejoin: miter; stroke-miterlimit: 4; fill: rgb(255,255,255); fill-rule: nonzero; opacity: 1; visibility: hidden;" vector-effect="non-scaling-stroke"  x="-540" y="-540" rx="0" ry="0" width="1080" height="1080" />
</g>
<g transform="matrix(1 0 0 1 540 540)" id="d729eace-74c2-4382-9610-198645e8279a"  >
</g>
<g transform="matrix(9.2 0 0 9.2 521.35 660.83)"  >
<g style="" vector-effect="non-scaling-stroke"   >
		<g transform="matrix(1 0 0 1 3 -14.04)"  >
<path style="stroke: none; stroke-width: 1; stroke-dasharray: none; stroke-linecap: butt; stroke-dashoffset: 0; stroke-linejoin: miter; stroke-miterlimit: 4; fill: rgb(255,255,255); fill-rule: nonzero; opacity: 1;" vector-effect="non-scaling-stroke"  transform=" translate(-49.75, -50.91)" d="M 93.44 41.18 C 93.26281642325684 40.53190871571039 92.73763067281848 40.037616244709575 92.08 39.9 L 91.84 39.9 C 89.54 39.43 85.25 38.559999999999995 83.31 37.61 L 82.56 37.24 C 79.76 35.85 76.86 34.410000000000004 73.64 34.09 C 71.20654007303744 33.94432148478339 68.76916977143371 34.30175707370572 66.47999999999999 35.14 L 67.17 37 C 69.17051712638028 36.24475885598592 71.3038019949636 35.90452203484025 73.44 36 C 76.3 36.29 79.03 37.64 81.67999999999999 38.95 L 82.42999999999999 39.32 C 84.53999999999999 40.32 88.64999999999999 41.21 91.22999999999999 41.74 C 88.1 44.52 86.22999999999999 46.64 85.38999999999999 48.21 L 85 49 C 83.67 51.64 82.29 54.36 80.17 56.3 C 77.72539694648705 58.420155863059904 74.63318734681549 59.647167197935275 71.4 59.779999999999994 C 68.63000000000001 59.959999999999994 61.650000000000006 57.63999999999999 58.010000000000005 56.38999999999999 C 58.77799790342251 53.43146441749905 57.88236063185521 50.2890789475984 55.67 48.17999999999999 C 58.21 44.86999999999999 62.19 39.629999999999995 62.99 36.58999999999999 C 63.9943625379849 33.03695086837033 63.768834486497575 29.248784378544187 62.35 25.839999999999996 C 61.03 22.83999999999999 58.75 20.57999999999999 56.550000000000004 18.35999999999999 L 56 17.75 C 54.4 16.16 52.33 12 51.34 10 L 51.040000000000006 9.4 C 50.80821285123188 8.928373911628071 50.32545220980561 8.632488357205522 49.800000000000004 8.64 C 49.27274129876368 8.64671370575979 48.79539773019768 8.95330022540787 48.57000000000001 9.430000000000001 L 48.39000000000001 9.799999999999999 C 47.49000000000001 11.68 45.39000000000001 16.07 43.75000000000001 17.729999999999997 L 43.17000000000001 18.319999999999997 C 40.970000000000006 20.539999999999996 38.69000000000001 22.839999999999996 37.37000000000001 25.799999999999997 C 36.37653607352174 28.105042749014014 35.96116443940599 30.61786949424316 36.16000000000001 33.12 L 38.16000000000001 32.98 C 37.973911440934536 30.807063238228185 38.317031365054845 28.621389321581763 39.160000000000004 26.610000000000003 C 40.33000000000001 23.989999999999995 42.48000000000001 21.819999999999997 44.56000000000001 19.729999999999997 L 45.15000000000001 19.139999999999997 C 46.81000000000001 17.439999999999998 48.680000000000014 13.739999999999997 49.79000000000001 11.439999999999998 C 50.95000000000001 13.759999999999998 52.860000000000014 17.439999999999998 54.52000000000001 19.139999999999997 L 55.10000000000001 19.729999999999997 C 57.18000000000001 21.83 59.33000000000001 23.989999999999995 60.50000000000001 26.609999999999996 C 61.737238062953786 29.603121574907785 61.924057182537595 32.927091947880065 61.03000000000001 36.039999999999985 C 60.330000000000005 38.69999999999999 56.370000000000005 43.919999999999995 54.03000000000001 46.92999999999999 C 51.39008987589477 45.36927253244197 48.109910124105234 45.36927253244197 45.47 46.92999999999999 C 43.13000000000001 43.46999999999999 39.470000000000006 38.19999999999999 36.900000000000006 36.50999999999999 C 33.8525513128693 34.43022669900645 30.18935177537857 33.44655714081596 26.50999999999999 33.71999999999999 C 23.280000000000005 34.03999999999999 20.380000000000006 35.47999999999999 17.580000000000005 36.85999999999999 L 16.830000000000005 37.22999999999999 C 14.830000000000005 38.22999999999999 10.240000000000006 38.86999999999999 8.040000000000006 39.22999999999999 L 7.040000000000006 39.36999999999999 C 6.577823778379331 39.44039922285346 6.19551344210176 39.76672482657113 6.053413449680864 40.212112862517216 C 5.911313457259968 40.65750089846331 6.033993328047093 41.144942425387335 6.370000000000006 41.46999999999999 L 6.880000000000006 41.959999999999994 C 8.370000000000006 43.41 11.880000000000006 46.78999999999999 12.940000000000005 48.85999999999999 L 13.310000000000004 49.60999999999999 C 14.730000000000004 52.39999999999999 16.190000000000005 55.28999999999999 18.570000000000004 57.46999999999999 C 20.679462705852398 59.34479619240036 23.257451729780446 60.61305620819338 26.03000000000001 61.13999999999999 L 26.430000000000003 59.13999999999999 C 24.045728188270104 58.683289504471404 21.826239212715723 57.5994333017901 20 56 C 17.89 54.06 16.509999999999998 51.34 15.18 48.71 L 14.799999999999999 47.96 C 13.719999999999999 45.84 10.799999999999999 42.9 8.959999999999999 41.120000000000005 C 11.53 40.75000000000001 15.639999999999999 40.120000000000005 17.759999999999998 39.07000000000001 L 18.509999999999998 38.70000000000001 C 21.15 37.39000000000001 23.889999999999997 36.03000000000001 26.74 35.70000000000001 C 29.96877761205867 35.46772078453703 33.180752913481875 36.33858565770007 35.849999999999994 38.170000000000016 C 38.129999999999995 39.66000000000001 41.769999999999996 44.96000000000001 43.91 48.120000000000005 C 42.23894854333775 49.71757575860903 41.29259197966513 51.92814910581378 41.29 54.24 C 41.29058882337517 54.962427767586455 41.38470437421655 55.681739477588465 41.57 56.379999999999995 C 37.65 57.79 31.48 60.040000000000006 29.16 62.17 C 26.39040309647974 64.61416856209053 24.529463803477086 67.92367991839639 23.879999999999995 71.56 C 23.4 74.75 24.07 77.92 24.72 80.98 L 24.89 81.79 C 25.35 83.99000000000001 24.89 88.59 24.61 90.79 C 24.56 91.22000000000001 24.53 91.57000000000001 24.5 91.79 C 24.4342521839126 92.27298328834833 24.66230538421135 92.74874944759226 25.08 93 C 25.271900105997407 93.11958440526193 25.49389826480866 93.1820213874276 25.72 93.18 C 25.93788956685967 93.17789686536989 26.15150960126145 93.1193236301307 26.34 93.01 L 27 92.61 C 28.77 91.51 32.91 88.95 35.18 88.44 L 35.99 88.25999999999999 C 39.050000000000004 87.57999999999998 42.21 86.88 44.92 85.10999999999999 C 46.401343099152584 84.12695647283505 47.6922130445592 82.88352006872945 48.73000000000001 81.43999999999998 L 47.11000000000001 80.25999999999998 C 46.2176390553411 81.51280065591936 45.10241087713006 82.59074156981332 43.82000000000001 83.43999999999998 C 41.42000000000001 85.00999999999998 38.440000000000005 85.66999999999999 35.56000000000001 86.30999999999999 L 34.74000000000001 86.49 C 32.43000000000001 87.00999999999999 28.85000000000001 89.11999999999999 26.67000000000001 90.49 C 26.95000000000001 87.89999999999999 27.35000000000001 83.77 26.86000000000001 81.49 L 26.69000000000001 80.67999999999999 C 26.070000000000007 77.78999999999999 25.44000000000001 74.80999999999999 25.870000000000008 71.97 C 26.445890181853024 68.78301137993301 28.08507962871504 65.88534745451241 30.520000000000007 63.75 C 32.52000000000001 61.89 38.73000000000001 59.64 42.30000000000001 58.36 C 43.57765608377679 60.737365347397656 45.90842136665132 62.366674199598165 48.58000000000001 62.75 L 48.58000000000001 63.62 C 48.41000000000001 67.75999999999999 48.140000000000015 74.67999999999999 49.29000000000001 77.72999999999999 C 50.52725659355914 81.17907474270656 52.89124074064295 84.11027416204149 55.99999999999999 86.05 C 58.78 87.7 62 88.25999999999999 65.05 88.8 L 65.86999999999999 88.94 C 68.07999999999998 89.33 72.16 91.52 74.11999999999999 92.57 L 74.80999999999999 92.94 C 75.00139892046884 93.04085638623143 75.21369795196941 93.09564323307028 75.42999999999999 93.1 C 75.81796288971653 93.0932211916624 76.18393888896838 92.91860419244584 76.43328665327427 92.62130493500422 C 76.68263441758013 92.3240056775626 76.79086865273608 91.93321816652367 76.72999999999999 91.55 L 76.63 91 C 76.28 89 75.46 84.15 75.83 81.85 L 75.97 81.03 C 76.48 77.94 76.97 74.75 76.38 71.58 C 75.63260418878508 68.90336855931996 74.36137641938389 66.40170107728981 72.63999999999999 64.22 L 71.06 65.45 C 72.59327561891664 67.3953517652248 73.7343776586461 69.61982151529264 74.42 71.99999999999999 C 74.98 74.81 74.48 77.82 74 80.73 L 73.86 81.56 C 73.48 83.9 74.1 88.01 74.52 90.56 C 72.22999999999999 89.34 68.52 87.43 66.21 87.01 L 65.39 86.87 C 62.480000000000004 86.36 59.480000000000004 85.87 57.01 84.37 C 54.26914320118253 82.64422066826306 52.1958653791549 80.03851945996644 51.129999999999995 76.98 C 50.129999999999995 74.31 50.4 67.38000000000001 50.53999999999999 63.660000000000004 L 50.53999999999999 62.77 C 53.393765640703876 62.50210177460187 55.92032182664032 60.813971227748496 57.25999999999999 58.28 C 61.25999999999999 59.64 67.72999999999999 61.81 71.07 61.81 L 71.5 61.81 C 75.18858636194078 61.64044302485581 78.71201885849516 60.23107002623406 81.5 57.81000000000001 C 83.89 55.620000000000005 85.35 52.730000000000004 86.76 49.940000000000005 L 87.14 49.2 C 87.84 47.82 89.76 45.75 92.86 43.02 C 93.39776912112254 42.573701152802315 93.62462798083506 41.85401097716258 93.44 41.18 Z M 49.8 60.77 C 47.170089178201756 60.774046021435275 44.796885967921554 59.19293970113755 43.787657900456246 56.76437922037098 C 42.778429832990945 54.3358187396044 43.33207118928443 51.53841424222273 45.19026902961396 49.67735323110686 C 47.048466869943496 47.816292219991 49.84501564056139 47.25834451014248 52.27512709578356 48.263832260490005 C 54.70523855100572 49.26932001083754 56.28999688767398 51.64008606587758 56.29 54.27 C 56.290004243729435 57.85594925438454 53.385945010657615 60.764483154995766 49.8 60.77 Z" stroke-linecap="round" />
</g>
		<g transform="matrix(1 0 0 1 -11.8 48.48)" style=""  >
		<text xml:space="preserve" font-family="'Helvetica Neue', Helvetica, Arial-Unicode, Arial, Sans-serif" font-size="5" font-style="normal" font-weight="bold" style="stroke: none; stroke-width: 1; stroke-dasharray: none; stroke-linecap: butt; stroke-dashoffset: 0; stroke-linejoin: miter; stroke-miterlimit: 4; fill: rgb(255,255,255); fill-rule: nonzero; opacity: 1; white-space: pre;" ><tspan x="-34.95" y="1.57" >Created by Sebastian Galassi</tspan></text>
</g>
		<g transform="matrix(1 0 0 1 -20.4 53.48)" style=""  >
		<text xml:space="preserve" font-family="'Helvetica Neue', Helvetica, Arial-Unicode, Arial, Sans-serif" font-size="5" font-style="normal" font-weight="bold" style="stroke: none; stroke-width: 1; stroke-dasharray: none; stroke-linecap: butt; stroke-dashoffset: 0; stroke-linejoin: miter; stroke-miterlimit: 4; fill: rgb(255,255,255); fill-rule: nonzero; opacity: 1; white-space: pre;" ><tspan x="-26.35" y="1.57" >from the Noun Project</tspan></text>
</g>
</g>
</g>
</svg>